# xmcd
#
# Track frame offsets: 
#        150
#        13814
#        15640
#        33205
#        45055
#        48264
#        68116
#        89782
#        91462
#        103923
#        122447
#        123886
#        138768
#        153430
#        175720
#        178310
#        196667
#
# Disc length: 3084 seconds
#
# Revision: 0
# Processed by: cddbd v1.5.2PL0 Copyright (c) Steve Scherf et al.
# Submitted via: ExactAudioCopy v0.99pb5
#
DISCID=d30c0a11
DTITLE=Kane's River - Official Bootleg #1 (Pittsburgh, May 18, 2002)
DYEAR=2002
DGENRE=Bluegrass
TTITLE0=Let It Slide
TTITLE1=John intro
TTITLE2=Richmond
TTITLE3=Prisoner's Song
TTITLE4=Julie intro
TTITLE5=Take Me Back Home
TTITLE6=Pray for Rain
TTITLE7=Ben intro
TTITLE8=Sally Johnson
TTITLE9=Billy Austin
TTITLE10=Dave intro
TTITLE11=This Whole World
TTITLE12=Rye Whiskey
TTITLE13=Walkin' after Midnight
TTITLE14=Jason intro
TTITLE15=This Little Town
TTITLE16=Henpecked
EXTD=
EXTT0=
EXTT1=
EXTT2=
EXTT3=
EXTT4=
EXTT5=
EXTT6=
EXTT7=
EXTT8=
EXTT9=
EXTT10=
EXTT11=
EXTT12=
EXTT13=
EXTT14=
EXTT15=
EXTT16=
PLAYORDER=
